<svg xmlns="http://www.w3.org/2000/svg" width="23" height="21" viewBox="0 0 23 21" fill="none">
    <path d="M4.29045 21C4.65939 19.6254 5.00853 18.3237 5.35887 17.0225C5.68221 15.8208 6.00256 14.6186 6.3379 13.4203C6.39549 13.2144 6.3127 13.1121 6.16393 12.9921C4.19507 11.4128 2.23041 9.82893 0.265154 8.24622C0.193166 8.18822 0.124178 8.12736 0 8.02272C0.679082 7.97381 1.28198 7.9249 1.88547 7.88737C3.91012 7.76169 5.93477 7.63316 7.96002 7.52397C8.25636 7.50804 8.39014 7.40397 8.49512 7.15033C9.46275 4.81523 10.4442 2.48524 11.422 0.154119C11.4358 0.120565 11.4544 0.0892867 11.5 0C11.7208 0.523209 11.9235 1.00035 12.1245 1.47863C12.9296 3.39631 13.737 5.31284 14.5343 7.23336C14.6159 7.43013 14.7262 7.50236 14.9458 7.51544C17.2602 7.65193 19.574 7.79751 21.8878 7.94197C22.2327 7.96358 22.5765 7.99201 23 8.02272C22.8758 8.12736 22.8068 8.18708 22.7354 8.24452C20.784 9.81414 18.8367 11.3877 16.8757 12.946C16.6435 13.1308 16.6171 13.2878 16.6879 13.5477C17.3346 15.9118 17.9669 18.2793 18.6028 20.6463C18.6292 20.7435 18.6448 20.8436 18.6772 20.9983C17.8505 20.5047 17.0748 20.0417 16.2998 19.5777C14.7712 18.6615 13.2409 17.747 11.7178 16.8229C11.5462 16.7188 11.4322 16.7268 11.2654 16.8274C9.07402 18.1497 6.8772 19.4651 4.68159 20.781C4.5736 20.8459 4.46142 20.9045 4.28985 21H4.29045Z" fill="#FFD602"/>
</svg>