<svg width="51" height="41" viewBox="0 0 51 41" fill="none" xmlns="http://www.w3.org/2000/svg">
<path d="M15.465 29.6671C17.2641 27.76 18.9818 25.8838 20.7605 24.0692C24.0029 20.753 27.2833 17.4754 30.546 14.1798C34.7235 9.95766 38.9034 5.73806 43.0758 1.51077C45.007 -0.4476 47.9673 -0.514333 49.7739 1.38243C51.5628 3.26123 51.3443 6.41823 49.4436 8.31243C42.8801 14.8626 36.3624 21.464 29.8244 28.0398C25.9544 31.9309 22.0946 35.8348 18.189 39.6925C16.4814 41.3813 14.1945 41.4583 12.487 39.7823C8.66017 36.0273 4.88675 32.2158 1.17431 28.3452C-0.492597 26.605 -0.329972 23.6739 1.31407 22.0543C3.15631 20.2372 5.82439 20.155 7.71237 21.9748C9.94847 24.1282 12.1033 26.3689 14.2962 28.5685C14.5909 28.8637 14.9009 29.1383 15.4676 29.6696L15.465 29.6671Z" fill="white"/>
</svg>
